<?xml version="1.0" standalone="no"?>
<!DOCTYPE svg PUBLIC "-//W3C//DTD SVG 20010904//EN"
 "http://www.w3.org/TR/2001/REC-SVG-20010904/DTD/svg10.dtd">
<svg version="1.0" xmlns="http://www.w3.org/2000/svg"
 width="300.000000pt" height="126.000000pt" viewBox="0 0 300.000000 126.000000"
 preserveAspectRatio="xMidYMid meet">
<g transform="translate(0.000000,126.000000) scale(0.100000,-0.100000)"
fill="#000000" stroke="none">
<path d="M1285 1165 c-77 -20 -133 -54 -184 -111 -47 -54 -61 -95 -61 -179 0
-74 24 -129 75 -174 57 -49 124 -77 299 -121 86 -22 174 -49 196 -60 48 -24
70 -64 70 -123 0 -57 -27 -92 -94 -123 -102 -48 -286 -26 -360 42 -32 30 -65
97 -66 132 0 21 -4 22 -80 22 -91 0 -92 0 -66 -95 27 -104 87 -180 176 -225
79 -40 161 -53 288 -48 94 4 116 8 173 35 91 43 154 108 179 186 19 60 14 159
-11 211 -44 95 -128 142 -349 197 -185 47 -207 55 -242 87 -21 20 -28 35 -28
64 0 57 23 93 77 119 67 34 217 34 280 1 51 -27 81 -64 96 -119 l11 -43 78 0
c75 0 78 1 78 23 0 38 -30 127 -56 167 -32 48 -99 96 -171 121 -78 27 -227 34
-308 14z m330 -58 c98 -46 164 -126 165 -199 0 -27 -2 -28 -48 -28 -46 0 -49
1 -61 36 -18 51 -80 108 -136 128 -60 20 -165 21 -231 1 -33 -9 -63 -28 -89
-55 -37 -38 -40 -45 -40 -100 0 -52 4 -62 30 -90 39 -41 70 -54 237 -96 172
-43 236 -66 285 -105 63 -50 83 -93 83 -177 0 -87 -15 -126 -69 -185 -62 -67
-142 -99 -263 -105 -253 -12 -409 84 -442 271 l-7 37 49 0 48 0 22 -53 c38
-92 104 -143 210 -166 71 -15 117 -14 187 4 121 32 181 113 161 218 -15 79
-99 126 -321 177 -184 42 -274 94 -304 173 -18 47 -13 153 8 195 55 107 162
153 346 149 107 -2 126 -5 180 -30z"/>
<path d="M2345 1170 c-125 -25 -235 -101 -303 -208 -99 -154 -109 -425 -24
-606 80 -168 228 -256 432 -256 237 0 395 119 425 320 l7 45 -86 0 c-85 0 -86
0 -86 -26 0 -40 -47 -122 -85 -148 -78 -53 -187 -66 -286 -34 -73 23 -148 97
-179 178 -21 53 -24 77 -24 200 -1 124 2 147 23 199 30 76 96 147 163 176 98
42 241 27 313 -33 39 -32 74 -96 75 -134 0 -21 4 -22 86 -22 l86 0 -7 42 c-10
66 -61 162 -108 203 -106 92 -274 133 -422 104z m311 -71 c97 -46 184 -149
184 -217 0 -20 -5 -22 -50 -22 l-49 0 -21 49 c-45 103 -135 155 -270 155 -71
1 -94 -4 -140 -25 -136 -64 -210 -205 -210 -399 1 -263 133 -431 341 -433 143
-1 244 63 284 180 13 37 15 38 65 41 l53 3 -6 -42 c-8 -58 -66 -148 -122 -186
-67 -47 -160 -73 -259 -73 -222 0 -367 98 -437 296 -29 82 -37 262 -15 362 44
207 186 335 391 351 107 8 187 -4 261 -40z"/>
<path d="M90 1085 l0 -75 170 0 170 0 0 -450 0 -450 80 0 80 0 0 450 0 450
170 0 170 0 0 75 0 75 -420 0 -420 0 0 -75z m810 0 l0 -45 -152 0 c-127 0
-154 -3 -170 -17 -17 -15 -18 -42 -18 -450 l0 -433 -50 0 -50 0 0 432 c0 387
-2 433 -17 450 -14 16 -34 18 -170 18 l-153 0 0 45 0 45 390 0 390 0 0 -45z"/>
</g>
</svg>
